<svg width="57" height="59" viewBox="0 0 57 59" fill="none" xmlns="http://www.w3.org/2000/svg">
<g clip-path="url(#clip0_1_619)">
<path d="M28.5001 58.6733C12.9034 58.6733 0.262207 45.8104 0.262207 29.9401C0.262207 14.0697 12.9034 1.20679 28.5001 1.20679C44.0968 1.20679 56.7379 14.0697 56.7379 29.9401C56.7379 45.8104 44.0968 58.6733 28.5001 58.6733Z" fill="white"/>
<path d="M28.6673 58.9402C44.4072 58.8451 57.0911 45.7846 56.9977 29.7686C56.9043 13.7526 44.0689 0.846151 28.3291 0.941193C12.5893 1.03623 -0.0946919 14.0968 -0.00128876 30.1128C0.0921144 46.1287 12.9275 59.0352 28.6673 58.9402Z" fill="#CA0A0A"/>
<path d="M10.0658 19.8643L11.2847 23.2717L14.8104 23.3717L12.4381 25.7256L13.0017 29.053L10.0658 26.9059L7.12998 29.053L7.69356 25.7256L5.32129 23.3717L8.34888 23.2717L10.0658 19.8643Z" fill="white"/>
<path d="M22.3529 19.8643L23.5784 23.2717L27.104 23.3717L24.7318 25.7256L25.2888 29.053L22.3529 26.9059L19.4236 29.053L19.9807 25.7256L17.6084 23.3717L20.6425 23.2717L22.3529 19.8643Z" fill="white"/>
<path d="M34.6471 19.8643L35.866 23.2717L39.3916 23.3717L37.0194 25.7256L37.5764 29.053L34.6471 26.9059L31.7112 29.053L32.2683 25.7256L29.896 23.3717L32.9301 23.2717L34.6471 19.8643Z" fill="white"/>
<path d="M46.934 19.8643L48.1529 23.2717L51.6785 23.3717L49.3063 25.7256L49.8698 29.053L46.934 26.9059L43.9981 29.053L44.5617 25.7256L42.1895 23.3717L45.2236 23.2717L46.934 19.8643Z" fill="white"/>
<path d="M15.9242 30.8269L17.2545 34.261L20.6753 34.341L18.3031 36.6949L18.8601 40.0157L15.9242 37.8685L12.9949 40.0157L13.552 36.6949L11.1797 34.341L14.3252 34.261L15.9242 30.8269Z" fill="white"/>
<path d="M28.2184 30.8269L29.5487 34.261L32.9629 34.341L30.5906 36.6949L31.1477 40.0157L28.2184 37.8685L25.2825 40.0157L25.8461 36.6949L23.4673 34.341L26.6128 34.261L28.2184 30.8269Z" fill="white"/>
<path d="M40.5053 30.8269L41.8356 34.261L45.2498 34.341L42.8776 36.6949L43.4411 40.0157L40.5053 37.8685L37.5694 40.0157L38.133 36.6949L35.7607 34.341L38.8997 34.261L40.5053 30.8269Z" fill="white"/>
</g>
<defs>
<clipPath id="clip0_1_619">
<rect width="57" height="58" fill="white" transform="translate(0 0.939941)"/>
</clipPath>
</defs>
</svg>
