<svg width="58" height="58" viewBox="0 0 58 58" fill="none" xmlns="http://www.w3.org/2000/svg">
<mask id="mask0_1_892" style="mask-type:luminance" maskUnits="userSpaceOnUse" x="0" y="0" width="58" height="58">
<path d="M28.9965 57.9501C44.9199 57.9501 57.8284 45.1378 57.8284 29.333C57.8284 13.5282 44.9199 0.71582 28.9965 0.71582C13.0731 0.71582 0.164551 13.5282 0.164551 29.333C0.164551 45.1378 13.0731 57.9501 28.9965 57.9501Z" fill="white"/>
</mask>
<g mask="url(#mask0_1_892)">
<path d="M74.0444 0.597168H-16.0513V58.0683H74.0444V0.597168Z" fill="#CA0A0A"/>
<path d="M77.7685 -6.17168L-23.9985 58.2524L-19.7669 64.8377L82.0002 0.413559L77.7685 -6.17168Z" fill="#45AE35"/>
<path d="M-23.9951 0.406929L77.772 64.8311L82.0036 58.2458L-19.7634 -6.17831L-23.9951 0.406929Z" fill="#45AE35"/>
<path d="M32.2984 0.597168H25.6953V58.0683H32.2984V0.597168Z" fill="white"/>
<path d="M74.0444 26.0889H-16.0513V32.5769H74.0444V26.0889Z" fill="white"/>
</g>
</svg>
