<svg width="57" height="58" viewBox="0 0 57 58" fill="none" xmlns="http://www.w3.org/2000/svg">
<g clip-path="url(#clip0_1_906)">
<path d="M28.5001 57.5714C12.9034 57.5714 0.262207 44.9303 0.262207 29.3336C0.262207 13.7369 12.9034 1.0957 28.5001 1.0957C44.0968 1.0957 56.7379 13.7369 56.7379 29.3336C56.7379 44.9303 44.0968 57.5714 28.5001 57.5714Z" fill="white"/>
<path d="M28.5 57.8335C44.2401 57.8335 57 45.0736 57 29.3335C57 13.5934 44.2401 0.833496 28.5 0.833496C12.7599 0.833496 0 13.5934 0 29.3335C0 45.0736 12.7599 57.8335 28.5 57.8335Z" fill="#2D62FF"/>
<path d="M15.3542 30.0936L16.4748 30.0674L16.2913 30.4016L17.3595 32.2824L17.6741 32.5969H16.5797L16.8156 32.2037L15.8982 30.6899L14.9873 32.1775L15.2232 32.6231H14.1484L15.4984 30.4147L15.3542 30.0936Z" fill="#FAD900"/>
<path d="M16.5012 31.247L15.8983 31.7909L15.302 31.2339L15.0464 31.7254L15.9114 32.4528L16.7371 31.7254L16.5012 31.247Z" fill="#FAD900"/>
<path d="M16.108 28.7505H15.7017V30.3429H16.108V28.7505Z" fill="#FAD900"/>
<path d="M26.6519 28.7505H26.2456V30.3429H26.6519V28.7505Z" fill="#FAD900"/>
<path d="M28.0348 30.2311C28.0086 30.1197 28.1069 30.0542 28.1069 30.0542L27.2091 30.0739L27.2287 30.087C27.5695 30.2573 27.7399 30.5326 27.7595 30.893C27.7727 31.1289 27.6744 31.8498 27.255 31.7908C26.8355 31.7318 26.77 31.4959 26.6914 31.0503C26.6127 30.6243 26.8487 30.2508 26.8487 30.2508H26.4555H26.0623C26.0623 30.2508 26.2982 30.6243 26.2195 31.0503C26.1409 31.4894 26.0688 31.7318 25.656 31.7908C25.2366 31.8498 25.1383 31.1289 25.1514 30.893C25.171 30.5326 25.3414 30.2573 25.6822 30.087L25.7018 30.0739L24.804 30.0542C24.804 30.0542 24.8958 30.1132 24.8761 30.2311C24.8237 30.4736 24.6009 31.7646 25.112 32.1316C25.6232 32.4986 26.1212 32.2364 26.2458 32.125C26.3441 32.0333 26.4292 31.8957 26.4686 31.8432C26.5013 31.8957 26.5931 32.0333 26.6914 32.125C26.8159 32.2364 27.3074 32.4986 27.8251 32.1316C28.3362 31.7711 28.1134 30.4802 28.061 30.2311H28.0348Z" fill="#FAD900"/>
<path d="M23.3623 28.023C23.3623 29.2353 22.3794 30.2183 21.167 30.2183C19.9547 30.2183 18.9717 29.2353 18.9717 28.023C18.9717 26.8106 19.9547 25.8276 21.167 25.8276C22.3794 25.8276 23.3623 26.8106 23.3623 28.023Z" fill="#FAD900"/>
<path d="M23.1394 16.7054C22.9166 16.5874 22.6282 16.6202 22.4251 16.7709C22.353 16.8234 22.2875 16.8889 22.2154 16.9348C22.1367 16.9806 22.0384 17.0003 21.9598 16.9544C21.8418 16.8889 21.8812 16.7644 21.9205 16.6661C21.986 16.5285 22.0122 16.3712 21.9795 16.2139C21.9401 16.0042 21.7894 15.8273 21.5994 15.7421C21.4618 15.6765 21.311 15.6569 21.1603 15.6634C21.0096 15.6503 20.8589 15.6765 20.7212 15.7421C20.5312 15.8338 20.3805 16.0042 20.3412 16.2139C20.3149 16.3646 20.3412 16.5285 20.4001 16.6661C20.446 16.7644 20.4788 16.8823 20.3608 16.9544C20.2822 17.0003 20.1839 16.9806 20.1052 16.9348C20.0266 16.8889 19.9676 16.8234 19.8955 16.7709C19.6924 16.6202 19.404 16.594 19.1812 16.7054C18.9584 16.8168 18.8143 17.0855 18.8405 17.3411C18.8929 17.8653 19.463 18.3175 19.8955 18.5141C20.2887 18.691 20.7344 18.7435 21.1538 18.6583C21.5732 18.7435 22.0188 18.691 22.412 18.5141C22.8445 18.3175 23.4212 17.8653 23.4671 17.3411C23.4933 17.0855 23.3491 16.8234 23.1263 16.7054H23.1394Z" fill="#FAD900"/>
<path d="M22.3925 17.3018H19.9351V42.0533H22.3925V17.3018Z" fill="#FAD900"/>
<path d="M12.3726 26.9022V28.9927H29.85V26.9022H12.3726Z" fill="#FAD900"/>
<path d="M30.8659 29.9167C30.9838 29.6939 30.9511 29.4056 30.8003 29.2024C30.7479 29.1303 30.6824 29.0714 30.6365 28.9927C30.5906 28.9141 30.571 28.8158 30.6168 28.7372C30.6824 28.6192 30.8069 28.6585 30.8986 28.6978C31.0362 28.7634 31.1935 28.7896 31.3508 28.7568C31.5605 28.7175 31.7374 28.5668 31.8226 28.3767C31.8882 28.2391 31.9078 28.0884 31.9013 27.9377C31.9144 27.7869 31.8882 27.6362 31.8226 27.4986C31.7309 27.3085 31.5605 27.1578 31.3508 27.1185C31.2001 27.0923 31.0362 27.1185 30.8986 27.1775C30.8003 27.2234 30.6824 27.2561 30.6168 27.1382C30.571 27.0595 30.5906 26.9612 30.6365 26.8826C30.6824 26.8039 30.7479 26.745 30.8003 26.6729C30.9511 26.4697 30.9773 26.1814 30.8659 25.9586C30.7479 25.7358 30.4858 25.5916 30.2302 25.6178C29.7059 25.6702 29.2538 26.2404 29.0572 26.6729C28.8802 27.0661 28.8278 27.5117 28.913 27.9311C28.8278 28.3505 28.8802 28.7961 29.0572 29.1893C29.2538 29.6218 29.7059 30.1985 30.2302 30.2444C30.4858 30.2706 30.7479 30.1264 30.8659 29.9036V29.9167Z" fill="#FAD900"/>
<path d="M11.547 29.9167C11.429 29.6939 11.4618 29.4056 11.6125 29.2024C11.6649 29.1303 11.7305 29.0714 11.7763 28.9927C11.8222 28.9141 11.8419 28.8158 11.796 28.7372C11.7305 28.6192 11.606 28.6585 11.5142 28.6978C11.3766 28.7634 11.2193 28.7896 11.062 28.7568C10.8523 28.7175 10.6754 28.5668 10.5902 28.3767C10.5247 28.2391 10.505 28.0884 10.5116 27.9377C10.4985 27.7869 10.5247 27.6362 10.5902 27.4986C10.682 27.3085 10.8523 27.1578 11.062 27.1185C11.2128 27.0923 11.3766 27.1185 11.5142 27.1775C11.6125 27.2234 11.7305 27.2561 11.796 27.1382C11.8419 27.0595 11.8222 26.9612 11.7763 26.8826C11.7305 26.8039 11.6649 26.745 11.6125 26.6729C11.4618 26.4697 11.4356 26.1814 11.547 25.9586C11.6649 25.7358 11.9271 25.5916 12.1827 25.6178C12.7069 25.6702 13.1591 26.2404 13.3557 26.6729C13.5326 27.0661 13.585 27.5117 13.4999 27.9311C13.585 28.3505 13.5326 28.7961 13.3557 29.1893C13.1591 29.6218 12.7069 30.1985 12.1827 30.2444C11.9271 30.2706 11.6649 30.1264 11.547 29.9036V29.9167Z" fill="#FAD900"/>
<path d="M23.4606 41.85C23.3754 41.5747 23.1657 41.365 22.9625 41.1684C22.6938 40.9129 22.412 40.6573 22.0778 40.5H20.256C19.9153 40.6442 19.64 40.8997 19.3714 41.1553C19.1682 41.3519 18.9585 41.5616 18.8733 41.8369C18.7422 42.2628 19.0044 42.7609 19.4238 42.8985C19.7514 43.0033 20.125 42.8788 20.3478 42.6232C20.5575 42.8461 20.8524 42.9837 21.1604 42.9837C21.4684 42.9837 21.7764 42.8461 21.9861 42.6232C22.2089 42.8788 22.589 43.0099 22.9101 42.8985C23.3295 42.7609 23.5916 42.2563 23.4606 41.8369V41.85Z" fill="#FAD900"/>
</g>
<defs>
<clipPath id="clip0_1_906">
<rect width="57" height="57" fill="white" transform="translate(0 0.833496)"/>
</clipPath>
</defs>
</svg>
