<svg width="57" height="59" viewBox="0 0 57 59" fill="none" xmlns="http://www.w3.org/2000/svg">
<g clip-path="url(#clip0_1_941)">
<path d="M28.4996 58.5127C12.9029 58.5127 0.261719 45.6497 0.261719 29.7794C0.261719 13.9091 12.9029 1.04614 28.4996 1.04614C44.0963 1.04614 56.7375 13.9091 56.7375 29.7794C56.7375 45.6497 44.0963 58.5127 28.4996 58.5127Z" fill="white"/>
<path d="M28.6668 58.7795C44.4067 58.6845 57.0906 45.6239 56.9972 29.6079C56.9038 13.592 44.0684 0.685506 28.3286 0.780548C12.5888 0.87559 -0.0951802 13.9362 -0.00177704 29.9521C0.0916261 45.9681 12.927 58.8746 28.6668 58.7795Z" fill="#CA0A0A"/>
<path d="M10.0653 19.7036L11.2842 23.1111L14.8099 23.2111L12.4376 25.565L13.0012 28.8924L10.0653 26.7452L7.12949 28.8924L7.69307 25.565L5.3208 23.2111L8.34839 23.1111L10.0653 19.7036Z" fill="white"/>
<path d="M22.3524 19.7036L23.5779 23.1111L27.1035 23.2111L24.7313 25.565L25.2883 28.8924L22.3524 26.7452L19.4232 28.8924L19.9802 25.565L17.6079 23.2111L20.6421 23.1111L22.3524 19.7036Z" fill="white"/>
<path d="M34.6466 19.7036L35.8655 23.1111L39.3911 23.2111L37.0189 25.565L37.5759 28.8924L34.6466 26.7452L31.7108 28.8924L32.2678 25.565L29.8955 23.2111L32.9297 23.1111L34.6466 19.7036Z" fill="white"/>
<path d="M46.9335 19.7036L48.1524 23.1111L51.678 23.2111L49.3058 25.565L49.8694 28.8924L46.9335 26.7452L43.9977 28.8924L44.5612 25.565L42.189 23.2111L45.2231 23.1111L46.9335 19.7036Z" fill="white"/>
<path d="M15.9237 30.6663L17.254 34.1004L20.6748 34.1804L18.3026 36.5343L18.8596 39.855L15.9237 37.7079L12.9944 39.855L13.5515 36.5343L11.1792 34.1804L14.3248 34.1004L15.9237 30.6663Z" fill="white"/>
<path d="M28.2179 30.6663L29.5482 34.1004L32.9624 34.1804L30.5902 36.5343L31.1472 39.855L28.2179 37.7079L25.282 39.855L25.8456 36.5343L23.4668 34.1804L26.6123 34.1004L28.2179 30.6663Z" fill="white"/>
<path d="M40.5048 30.6663L41.8351 34.1004L45.2493 34.1804L42.8771 36.5343L43.4406 39.855L40.5048 37.7079L37.5689 39.855L38.1325 36.5343L35.7603 34.1804L38.8993 34.1004L40.5048 30.6663Z" fill="white"/>
</g>
<defs>
<clipPath id="clip0_1_941">
<rect width="57" height="58" fill="white" transform="translate(-0.000488281 0.779297)"/>
</clipPath>
</defs>
</svg>
