<svg width="59" height="59" viewBox="0 0 59 59" fill="none" xmlns="http://www.w3.org/2000/svg">
<mask id="mask0_1_928" style="mask-type:luminance" maskUnits="userSpaceOnUse" x="0" y="0" width="59" height="59">
<path d="M29.6556 58.8329C45.8341 58.8329 58.9494 45.6752 58.9494 29.4444C58.9494 13.2136 45.8341 0.0559082 29.6556 0.0559082C13.4771 0.0559082 0.361816 13.2136 0.361816 29.4444C0.361816 45.6752 13.4771 58.8329 29.6556 58.8329Z" fill="white"/>
</mask>
<g mask="url(#mask0_1_928)">
<path d="M67.8273 -0.166992H-4.91211V58.833H67.8273V-0.166992Z" fill="#FAD900"/>
<path d="M71.8955 45.6492H-6.10449V51.9877H71.8955V45.6492Z" fill="#CA0A0A"/>
<path d="M71.8955 32.6611H-6.10449V38.9997H71.8955V32.6611Z" fill="#CA0A0A"/>
<path d="M71.8955 19.6663H-6.10449V26.0048H71.8955V19.6663Z" fill="#CA0A0A"/>
<path d="M71.8955 6.67847H-6.10449V13.017H71.8955V6.67847Z" fill="#CA0A0A"/>
</g>
</svg>
