<svg width="58" height="59" viewBox="0 0 58 59" fill="none" xmlns="http://www.w3.org/2000/svg">
<g clip-path="url(#clip0_1_957)">
<path d="M28.9999 58.5662C13.1296 58.5662 0.266602 45.7032 0.266602 29.8329C0.266602 13.9626 13.1296 1.09961 28.9999 1.09961C44.8702 1.09961 57.7331 13.9626 57.7331 29.8329C57.7331 45.7032 44.8702 58.5662 28.9999 58.5662Z" fill="white"/>
<path d="M29 58.833C45.0163 58.833 58 45.8493 58 29.833C58 13.8168 45.0163 0.833008 29 0.833008C12.9837 0.833008 0 13.8168 0 29.833C0 45.8493 12.9837 58.833 29 58.833Z" fill="#CA0A0A"/>
<path d="M19.3912 28.8396C18.5043 28.8396 17.7842 28.1194 17.7842 27.2325C17.7842 26.3457 18.5043 25.6255 19.3912 25.6255C20.2781 25.6255 20.9983 26.3457 20.9983 27.2325C20.9983 28.1194 20.2781 28.8396 19.3912 28.8396ZM19.3912 26.1656C18.8044 26.1656 18.3243 26.6457 18.3243 27.2325C18.3243 27.8193 18.8044 28.2994 19.3912 28.2994C19.978 28.2994 20.4581 27.8193 20.4581 27.2325C20.4581 26.6457 19.978 26.1656 19.3912 26.1656Z" fill="#FAD900"/>
<path d="M28.8331 28.8396C27.9462 28.8396 27.2261 28.1194 27.2261 27.2325C27.2261 26.3457 27.9462 25.6255 28.8331 25.6255C29.72 25.6255 30.4401 26.3457 30.4401 27.2325C30.4401 28.1194 29.72 28.8396 28.8331 28.8396ZM28.8331 26.1656C28.2463 26.1656 27.7662 26.6457 27.7662 27.2325C27.7662 27.8193 28.2463 28.2994 28.8331 28.2994C29.4199 28.2994 29.9 27.8193 29.9 27.2325C29.9 26.6457 29.4199 26.1656 28.8331 26.1656Z" fill="#FAD900"/>
<path d="M28.8331 52.6447C27.9462 52.6447 27.2261 51.9246 27.2261 51.0377C27.2261 50.1508 27.9462 49.4307 28.8331 49.4307C29.72 49.4307 30.4401 50.1508 30.4401 51.0377C30.4401 51.9246 29.72 52.6447 28.8331 52.6447ZM28.8331 49.9708C28.2463 49.9708 27.7662 50.4509 27.7662 51.0377C27.7662 51.6245 28.2463 52.1046 28.8331 52.1046C29.4199 52.1046 29.9 51.6245 29.9 51.0377C29.9 50.4509 29.4199 49.9708 28.8331 49.9708Z" fill="#FAD900"/>
<path d="M38.2687 28.8396C37.3818 28.8396 36.6616 28.1194 36.6616 27.2325C36.6616 26.3457 37.3818 25.6255 38.2687 25.6255C39.1555 25.6255 39.8757 26.3457 39.8757 27.2325C39.8757 28.1194 39.1555 28.8396 38.2687 28.8396ZM38.2687 26.1656C37.6819 26.1656 37.2017 26.6457 37.2017 27.2325C37.2017 27.8193 37.6819 28.2994 38.2687 28.2994C38.8555 28.2994 39.3356 27.8193 39.3356 27.2325C39.3356 26.6457 38.8555 26.1656 38.2687 26.1656Z" fill="#FAD900"/>
<path d="M38.2687 39.362C37.3818 39.362 36.6616 38.6419 36.6616 37.755C36.6616 36.8681 37.3818 36.1479 38.2687 36.1479C39.1555 36.1479 39.8757 36.8681 39.8757 37.755C39.8757 38.6419 39.1555 39.362 38.2687 39.362ZM38.2687 36.6881C37.6819 36.6881 37.2017 37.1682 37.2017 37.755C37.2017 38.3418 37.6819 38.8219 38.2687 38.8219C38.8555 38.8219 39.3356 38.3418 39.3356 37.755C39.3356 37.1682 38.8555 36.6881 38.2687 36.6881Z" fill="#FAD900"/>
<path d="M19.3512 39.362C18.4643 39.362 17.7441 38.6419 17.7441 37.755C17.7441 36.8681 18.4643 36.1479 19.3512 36.1479C20.238 36.1479 20.9582 36.8681 20.9582 37.755C20.9582 38.6419 20.238 39.362 19.3512 39.362ZM19.3512 36.6881C18.7644 36.6881 18.2843 37.1682 18.2843 37.755C18.2843 38.3418 18.7644 38.8219 19.3512 38.8219C19.938 38.8219 20.4181 38.3418 20.4181 37.755C20.4181 37.1682 19.938 36.6881 19.3512 36.6881Z" fill="#FAD900"/>
<path d="M38.2687 48.7575C37.3818 48.7575 36.6616 48.0374 36.6616 47.1505C36.6616 46.2636 37.3818 45.5435 38.2687 45.5435C39.1555 45.5435 39.8757 46.2636 39.8757 47.1505C39.8757 48.0374 39.1555 48.7575 38.2687 48.7575ZM38.2687 46.0836C37.6819 46.0836 37.2017 46.5637 37.2017 47.1505C37.2017 47.7373 37.6819 48.2174 38.2687 48.2174C38.8555 48.2174 39.3356 47.7373 39.3356 47.1505C39.3356 46.5637 38.8555 46.0836 38.2687 46.0836Z" fill="#FAD900"/>
<path d="M19.3512 48.7575C18.4643 48.7575 17.7441 48.0374 17.7441 47.1505C17.7441 46.2636 18.4643 45.5435 19.3512 45.5435C20.238 45.5435 20.9582 46.2636 20.9582 47.1505C20.9582 48.0374 20.238 48.7575 19.3512 48.7575ZM19.3512 46.0836C18.7644 46.0836 18.2843 46.5637 18.2843 47.1505C18.2843 47.7373 18.7644 48.2174 19.3512 48.2174C19.938 48.2174 20.4181 47.7373 20.4181 47.1505C20.4181 46.5637 19.938 46.0836 19.3512 46.0836Z" fill="#FAD900"/>
<path d="M28.8933 39.8487C27.7731 39.8487 26.8662 38.9418 26.8662 37.8216C26.8662 36.7013 27.7731 35.7944 28.8933 35.7944C30.0136 35.7944 30.9205 36.7013 30.9205 37.8216C30.9205 38.9418 30.0136 39.8487 28.8933 39.8487ZM28.8933 36.3279C28.0732 36.3279 27.3997 36.9947 27.3997 37.8216C27.3997 38.6484 28.0665 39.3152 28.8933 39.3152C29.7202 39.3152 30.387 38.6484 30.387 37.8216C30.387 36.9947 29.7202 36.3279 28.8933 36.3279Z" fill="#FAD900"/>
<path d="M36.935 27.7327C36.3682 27.6326 35.8081 27.5726 35.2413 27.5326C34.6745 27.4926 34.1144 27.4726 33.5476 27.4659C32.9808 27.4593 32.4207 27.4659 31.8539 27.5059C31.2871 27.5459 30.727 27.5993 30.1602 27.7126V26.7524C30.727 26.8658 31.2871 26.9258 31.8539 26.9591C32.4207 26.9925 32.9808 27.0058 33.5476 26.9992C34.1144 26.9925 34.6745 26.9725 35.2413 26.9325C35.8081 26.8925 36.3682 26.8324 36.935 26.7324V27.7327Z" fill="#FAD900"/>
<path d="M37.0618 27.8393C36.835 28.2594 36.575 28.6462 36.3016 29.0263C36.0282 29.4064 35.7348 29.7664 35.4347 30.1199C35.1347 30.4733 34.8213 30.8134 34.4878 31.1468C34.2745 31.3535 34.0544 31.5535 33.8277 31.7402C33.6143 31.9136 33.3943 32.047 33.2542 32.2937C33.1875 32.4004 33.1209 32.5137 33.0542 32.6204C32.9208 32.8272 32.7808 33.0272 32.6407 33.2206C32.3674 33.6007 32.074 33.9607 31.7739 34.3142C31.4738 34.6676 31.1604 35.0077 30.827 35.3411C30.4936 35.6678 30.1468 35.9812 29.7534 36.2479L30.4936 36.9014C30.7136 36.4747 30.9737 36.0879 31.2471 35.7078C31.5272 35.3344 31.8206 34.9743 32.134 34.6276C32.4474 34.2808 32.7608 33.9407 33.1009 33.6207C33.2742 33.454 33.4476 33.2939 33.6343 33.1339C33.761 33.0272 33.901 32.9405 34.0277 32.8338C34.1611 32.7205 34.2144 32.5804 34.3011 32.4271C34.4812 32.107 34.6879 31.8003 34.9146 31.5068C35.1947 31.1334 35.4881 30.7733 35.8015 30.4266C36.1149 30.0799 36.4283 29.7398 36.7684 29.4197C37.1084 29.0996 37.4552 28.7862 37.8419 28.5062L37.0684 27.8193L37.0618 27.8393Z" fill="#FAD900"/>
<path d="M20.6913 27.8994C20.918 28.3195 21.1781 28.7062 21.4515 29.0863C21.7249 29.4664 22.0183 29.8265 22.3184 30.1799C22.6184 30.5333 22.9318 30.8734 23.2652 31.2068C23.4786 31.4135 23.6987 31.6136 23.9254 31.8003C24.1388 31.9737 24.3588 32.107 24.4989 32.3538C24.5655 32.4604 24.6322 32.5738 24.6989 32.6805C24.8323 32.8872 24.9723 33.0873 25.1123 33.2806C25.3857 33.6607 25.6791 34.0208 25.9792 34.3742C26.2793 34.7276 26.5927 35.0677 26.9261 35.4011C27.2595 35.7279 27.6062 36.0413 27.9997 36.308L27.2595 36.9615C27.0394 36.5347 26.7794 36.148 26.506 35.7679C26.2259 35.3945 25.9325 35.0344 25.6191 34.6876C25.3057 34.3409 24.9923 34.0008 24.6522 33.6807C24.4788 33.514 24.3055 33.354 24.1188 33.1939C23.9921 33.0873 23.852 33.0006 23.7253 32.8939C23.592 32.7805 23.5386 32.6405 23.4519 32.4871C23.2719 32.167 23.0652 31.8603 22.8385 31.5669C22.5584 31.1935 22.265 30.8334 21.9516 30.4867C21.6382 30.1399 21.3248 29.7998 20.9847 29.4798C20.6446 29.1597 20.2979 28.8463 19.9111 28.5662L20.6846 27.8794L20.6913 27.8994Z" fill="#FAD900"/>
<path d="M28.373 36.2011C28.4731 35.561 28.5331 34.9142 28.5731 34.274C28.6131 33.6339 28.6331 32.987 28.6398 32.3469C28.6464 31.7067 28.6398 31.0599 28.5998 30.4198C28.5598 29.7796 28.5064 29.1328 28.3931 28.4927H29.3533C29.2399 29.1328 29.1799 29.7796 29.1466 30.4198C29.1132 31.0599 29.0999 31.7067 29.1066 32.3469C29.1132 32.987 29.1332 33.6339 29.1732 34.274C29.2132 34.9142 29.2733 35.561 29.3733 36.2011H28.373Z" fill="#FAD900"/>
<path d="M28.373 49.6978C28.4731 48.8509 28.5331 47.9974 28.5731 47.1505C28.6131 46.3037 28.6331 45.4502 28.6398 44.6033C28.6464 43.7564 28.6398 42.9029 28.5998 42.056C28.5598 41.2092 28.5064 40.3557 28.3931 39.5088H29.3533C29.2399 40.3557 29.1799 41.2092 29.1466 42.056C29.1132 42.9029 29.0999 43.7564 29.1066 44.6033C29.1132 45.4502 29.1332 46.3037 29.1732 47.1505C29.2132 47.9974 29.2733 48.8509 29.3733 49.6978H28.373Z" fill="#FAD900"/>
<path d="M18.8511 36.588C18.9511 35.9145 19.0111 35.241 19.0511 34.5609C19.0911 33.8874 19.1111 33.2139 19.1178 32.5338C19.1245 31.8603 19.1178 31.1868 19.0778 30.5066C19.0378 29.8331 18.9844 29.1596 18.8711 28.4795H19.8313C19.7179 29.153 19.6579 29.8265 19.6246 30.5066C19.5912 31.1801 19.5779 31.8536 19.5846 32.5338C19.5912 33.2072 19.6112 33.8807 19.6513 34.5609C19.6913 35.2344 19.7513 35.9079 19.8513 36.588H18.8511Z" fill="#FAD900"/>
<path d="M37.9756 36.5479C38.0756 35.8744 38.1356 35.2076 38.1756 34.5341C38.2156 33.8606 38.2356 33.1938 38.2423 32.5203C38.249 31.8468 38.2423 31.18 38.2023 30.5065C38.1623 29.833 38.1089 29.1662 37.9956 28.4927H38.9558C38.8425 29.1662 38.7824 29.833 38.7491 30.5065C38.7158 31.18 38.7024 31.8468 38.7091 32.5203C38.7158 33.1938 38.7358 33.8606 38.7758 34.5341C38.8158 35.2076 38.8758 35.8744 38.9758 36.5479H37.9756Z" fill="#FAD900"/>
<path d="M18.8511 46.1501C18.9511 45.5433 19.0111 44.9299 19.0511 44.3231C19.0911 43.7163 19.1111 43.1028 19.1178 42.496C19.1245 41.8892 19.1178 41.2757 19.0778 40.6689C19.0378 40.0621 18.9844 39.4486 18.8711 38.8418H19.8313C19.7179 39.4486 19.6579 40.0621 19.6246 40.6689C19.5912 41.2757 19.5779 41.8892 19.5846 42.496C19.5912 43.1028 19.6112 43.7163 19.6513 44.3231C19.6913 44.9299 19.7513 45.5433 19.8513 46.1501H18.8511Z" fill="#FAD900"/>
<path d="M37.9756 46.1103C38.0756 45.5035 38.1356 44.8967 38.1756 44.2899C38.2156 43.6831 38.2356 43.0763 38.2423 42.4694C38.249 41.8626 38.2423 41.2558 38.2023 40.649C38.1623 40.0422 38.1089 39.4354 37.9956 38.8286H38.9558C38.8425 39.4354 38.7824 40.0422 38.7491 40.649C38.7158 41.2558 38.7024 41.8626 38.7091 42.4694C38.7158 43.0763 38.7358 43.6831 38.7758 44.2899C38.8158 44.8967 38.8758 45.5035 38.9758 46.1103H37.9756Z" fill="#FAD900"/>
<path d="M29.8066 50.1778C30.4401 50.0244 31.0536 49.8244 31.6604 49.6177C32.2672 49.411 32.8673 49.1776 33.4675 48.9308C34.061 48.6908 34.6544 48.4307 35.2346 48.1507C35.8147 47.8706 36.3882 47.5705 36.9349 47.2104L37.3084 48.0973C36.6682 48.2373 36.0547 48.4374 35.4479 48.6508C34.8411 48.8708 34.241 49.1042 33.6542 49.3643C33.0607 49.6177 32.4739 49.8844 31.9005 50.1711C31.3203 50.4579 30.7535 50.7579 30.2001 51.1047L29.8133 50.1778H29.8066Z" fill="#FAD900"/>
<path d="M27.4931 27.7327C26.9196 27.6326 26.3528 27.5726 25.7794 27.5326C25.2059 27.4926 24.6391 27.4726 24.0656 27.4659C23.4922 27.4593 22.9254 27.4659 22.3519 27.5059C21.7784 27.5459 21.2116 27.5993 20.6382 27.7126V26.7524C21.2116 26.8658 21.7784 26.9258 22.3519 26.9591C22.9254 26.9925 23.4922 27.0058 24.0656 26.9992C24.6391 26.9925 25.2059 26.9725 25.7794 26.9325C26.3528 26.8925 26.9196 26.8324 27.4931 26.7324V27.7327Z" fill="#FAD900"/>
<path d="M36.9352 38.1951C36.3884 38.095 35.8483 38.035 35.3015 37.995C34.7547 37.955 34.2146 37.935 33.6678 37.9283C33.121 37.9217 32.5809 37.9283 32.0341 37.9683C31.4873 38.0083 30.9472 38.0617 30.4004 38.1751V37.2148C30.9472 37.3282 31.4873 37.3882 32.0341 37.4215C32.5809 37.4549 33.121 37.4682 33.6678 37.4616C34.2146 37.4549 34.7547 37.4349 35.3015 37.3949C35.8483 37.3549 36.3884 37.2948 36.9352 37.1948V38.1951Z" fill="#FAD900"/>
<path d="M27.2594 38.1951C26.7059 38.095 26.1591 38.035 25.6057 37.995C25.0522 37.955 24.5054 37.935 23.952 37.9283C23.3985 37.9217 22.8517 37.9283 22.2982 37.9683C21.7448 38.0083 21.198 38.0617 20.6445 38.1751V37.2148C21.198 37.3282 21.7448 37.3882 22.2982 37.4215C22.8517 37.4549 23.3985 37.4682 23.952 37.4616C24.5054 37.4549 25.0522 37.4349 25.6057 37.3949C26.1591 37.3549 26.7059 37.2948 27.2594 37.1948V38.1951Z" fill="#FAD900"/>
<path d="M27.3461 38.7215C27.106 39.1349 26.8193 39.5084 26.5192 39.8684C26.2192 40.2219 25.9058 40.5686 25.5724 40.8887C25.2389 41.2154 24.9055 41.5355 24.5455 41.8356C24.3587 41.9889 24.1787 42.1423 23.9853 42.289C23.852 42.389 23.7119 42.4624 23.5786 42.5624C23.4385 42.6691 23.3718 42.8024 23.2785 42.9491C23.0784 43.2559 22.8517 43.5493 22.6117 43.836C22.3116 44.1894 21.9982 44.5362 21.6648 44.8563C21.3314 45.183 20.998 45.5031 20.6379 45.8031C20.5045 45.9165 20.3712 46.0232 20.2378 46.1299C20.3978 46.2232 20.5245 46.3766 20.6112 46.5366C20.6446 46.5967 20.6712 46.6633 20.6979 46.73C20.8246 46.5633 20.9513 46.4033 21.078 46.2432C21.3714 45.8832 21.6848 45.5364 22.0049 45.1963C22.3249 44.8563 22.6583 44.5362 23.0118 44.2294C23.2318 44.0361 23.4652 43.8494 23.7053 43.676C23.932 43.5159 24.152 43.3959 24.3121 43.1625C24.3854 43.0558 24.4588 42.9558 24.5321 42.8491C24.6788 42.6557 24.8255 42.4624 24.9789 42.2757C25.2723 41.9156 25.5857 41.5688 25.9058 41.2288C26.2258 40.8887 26.5592 40.5686 26.9127 40.2619C27.2661 39.9551 27.6328 39.6684 28.0396 39.415L27.3394 38.7148L27.3461 38.7215Z" fill="#FAD900"/>
<path d="M37.5618 45.9968C37.4551 45.9101 37.3417 45.8234 37.235 45.7301C36.8749 45.43 36.5415 45.1099 36.2081 44.7832C35.8747 44.4564 35.5613 44.1164 35.2612 43.7629C35.0212 43.4829 34.8011 43.1895 34.5944 42.8761C34.5011 42.7294 34.4344 42.596 34.2944 42.4893C34.161 42.3893 34.0143 42.3159 33.8876 42.2159C33.6942 42.0692 33.5142 41.9159 33.3275 41.7625C32.9674 41.4624 32.634 41.1423 32.3006 40.8156C31.9672 40.4889 31.6537 40.1488 31.3537 39.7954C31.0536 39.4353 30.7735 39.0619 30.5268 38.6484L29.8267 39.3486C30.2334 39.5953 30.6002 39.8887 30.9536 40.1955C31.307 40.5022 31.6404 40.8223 31.9605 41.1623C32.2806 41.4958 32.594 41.8425 32.8874 42.2093C33.0407 42.396 33.1941 42.5893 33.3341 42.7827C33.4075 42.8827 33.4808 42.9894 33.5542 43.0961C33.7142 43.3295 33.9343 43.4495 34.161 43.6096C34.401 43.783 34.6344 43.9697 34.8545 44.163C35.2079 44.4698 35.5413 44.7898 35.8614 45.1299C36.1815 45.47 36.4949 45.8101 36.7883 46.1768C36.8883 46.2969 36.975 46.4169 37.075 46.5436C37.195 46.3369 37.3617 46.1568 37.5618 46.0101V45.9968Z" fill="#FAD900"/>
<path d="M35.9218 22.838C40.0094 18.0369 32.8144 15.9897 28.8735 15.9897C24.9326 15.9897 18.011 18.3103 21.2851 22.838H35.9218Z" fill="#C90019"/>
<path d="M35.9549 22.9046H21.2516L21.2316 22.878C20.3113 21.6043 20.1246 20.4174 20.6714 19.3505C21.3382 18.0435 22.9453 17.23 24.1789 16.7832C25.6459 16.2498 27.3996 15.9297 28.88 15.9297C31.6273 15.9297 35.9549 16.9299 36.9818 19.1504C37.4886 20.2507 37.1485 21.5043 35.9749 22.8846L35.9549 22.9113V22.9046ZM21.3182 22.7713H35.8883C37.0085 21.4443 37.3353 20.244 36.8551 19.2038C35.8549 17.0366 31.5806 16.0564 28.8733 16.0564C26.3061 16.0564 21.9584 17.1233 20.7848 19.4105C20.2647 20.4241 20.4447 21.5576 21.3182 22.7713Z" fill="black"/>
<path d="M24.9922 12.2622C22.6784 11.7687 20.1045 12.3288 18.5241 14.1826C17.0838 15.8763 16.7303 18.4369 18.0707 20.3107C18.8642 21.4176 20.0778 22.0444 21.3381 22.4712C22.0249 22.7046 22.325 21.611 21.6381 21.3843C20.7513 21.0842 19.8777 20.6708 19.2376 19.9706C18.6308 19.3104 18.3441 18.4036 18.3574 17.51C18.3774 15.7496 19.6644 14.1893 21.2781 13.5825C22.365 13.169 23.5519 13.109 24.6922 13.3491C25.399 13.5024 25.7057 12.4089 24.9922 12.2622Z" fill="#FAD900"/>
<path d="M21.525 22.5712C21.4583 22.5712 21.385 22.5579 21.3183 22.5379C19.7579 22.0111 18.711 21.3176 18.0175 20.3507C17.3641 19.4438 17.0773 18.3436 17.1907 17.1766C17.2907 16.0764 17.7508 14.9961 18.4776 14.1426C19.958 12.4022 22.4586 11.6554 25.0058 12.2022C25.2192 12.2488 25.3726 12.3755 25.4326 12.5689C25.5059 12.7823 25.4392 13.049 25.2792 13.2291C25.1258 13.3958 24.9058 13.4691 24.6724 13.4224C23.5121 13.1757 22.3452 13.2557 21.2983 13.6492C19.6246 14.2826 18.4376 15.8763 18.4176 17.5167C18.4043 18.4369 18.7244 19.3171 19.2845 19.9306C19.818 20.5174 20.5715 20.9575 21.6584 21.3243C21.8784 21.3976 22.0318 21.571 22.0785 21.791C22.1252 22.0311 22.0451 22.2911 21.8718 22.4378C21.7717 22.5245 21.6517 22.5712 21.5183 22.5712H21.525ZM23.3721 12.1622C21.465 12.1622 19.7113 12.8957 18.5777 14.2293C17.0707 15.9964 16.884 18.5369 18.1242 20.2707C18.7977 21.2109 19.8313 21.8911 21.3583 22.4045C21.565 22.4712 21.7051 22.4045 21.7851 22.3312C21.9184 22.2111 21.9851 22.0044 21.9451 21.811C21.9118 21.631 21.7917 21.5043 21.6117 21.4443C20.5048 21.0709 19.7313 20.6174 19.1845 20.0173C18.5977 19.3771 18.2709 18.4703 18.2843 17.5167C18.3043 15.823 19.5246 14.1826 21.2516 13.5225C22.3252 13.1157 23.5188 13.0357 24.7057 13.2891C24.8925 13.3291 25.0592 13.2757 25.1792 13.1424C25.3126 12.9957 25.3592 12.7823 25.3059 12.6089C25.2725 12.5089 25.1859 12.3755 24.9791 12.3355C24.439 12.2222 23.8989 12.1622 23.3721 12.1622Z" fill="black"/>
<path d="M28.1065 11.8557C26.4794 11.529 24.7257 12.0424 23.6188 13.3094C22.4852 14.6097 22.1918 16.3167 22.6386 17.9571C22.9053 18.944 23.3787 19.8709 23.8522 20.7711C24.1856 21.4179 25.1658 20.8444 24.8257 20.2043C24.0122 18.6373 23.072 16.7968 23.8455 15.0231C24.5056 13.5028 26.1727 12.6159 27.8064 12.9426C28.1065 13.0026 28.4132 12.8559 28.4999 12.5492C28.5732 12.2691 28.4065 11.9157 28.1065 11.8557Z" fill="#FAD900"/>
<path d="M24.2854 21.1245C24.2854 21.1245 24.2721 21.1245 24.2587 21.1245C24.052 21.1179 23.8853 21.0045 23.7853 20.8045C23.2518 19.7842 22.8251 18.9307 22.5717 17.9771C22.1049 16.2434 22.465 14.5297 23.5653 13.2694C24.6588 12.0158 26.3992 11.449 28.113 11.789C28.2597 11.8157 28.393 11.9157 28.4797 12.0558C28.5731 12.2091 28.6064 12.4025 28.5597 12.5692C28.473 12.8893 28.1396 13.076 27.7862 13.0093C26.1859 12.6893 24.5521 13.5494 23.8987 15.0498C23.1252 16.8169 24.0987 18.6773 24.8789 20.171C24.9856 20.3844 24.9789 20.6044 24.8589 20.7978C24.7322 20.9978 24.5055 21.1245 24.2854 21.1245ZM27.1261 11.8224C25.7924 11.8224 24.5188 12.3692 23.6653 13.3494C22.5984 14.5764 22.2449 16.2501 22.6984 17.9371C22.9518 18.8773 23.3785 19.7242 23.9053 20.7378C24.0054 20.9311 24.1587 20.9778 24.2654 20.9845C24.4521 20.9845 24.6388 20.8845 24.7455 20.7244C24.8389 20.5711 24.8455 20.3977 24.7589 20.231C23.9653 18.7106 22.9785 16.8235 23.7786 14.9964C24.4588 13.4361 26.1592 12.5425 27.8196 12.876C28.0663 12.9226 28.353 12.8226 28.433 12.5292C28.4664 12.4025 28.4397 12.2425 28.3664 12.1225C28.2997 12.0158 28.1997 11.9424 28.093 11.9224C27.7729 11.8557 27.4461 11.8291 27.1327 11.8291L27.1261 11.8224Z" fill="black"/>
<path d="M32.454 12.2622C34.7679 11.7687 37.3418 12.3288 38.9222 14.1826C40.3625 15.8763 40.7159 18.4369 39.3756 20.3107C38.5821 21.4176 37.3685 22.0444 36.1082 22.4712C35.4214 22.7046 35.1213 21.611 35.8081 21.3843C36.695 21.0842 37.5685 20.6708 38.2087 19.9706C38.8155 19.3104 39.1022 18.4036 39.0889 17.51C39.0689 15.7496 37.7819 14.1893 36.1682 13.5825C35.0813 13.169 33.8944 13.109 32.7541 13.3491C32.0473 13.5024 31.7405 12.4089 32.454 12.2622Z" fill="#FAD900"/>
<path d="M35.9151 22.5712C35.7818 22.5712 35.6617 22.5246 35.5617 22.4379C35.3884 22.2845 35.3083 22.0244 35.355 21.7911C35.4017 21.5643 35.5551 21.3976 35.7751 21.3243C36.862 20.9575 37.6155 20.5174 38.149 19.9306C38.7091 19.3172 39.0225 18.437 39.0159 17.5167C38.9958 15.8764 37.8156 14.2827 36.1352 13.6492C35.0883 13.2558 33.9213 13.1757 32.7611 13.4225C32.5277 13.4691 32.3076 13.4025 32.1543 13.2291C31.9942 13.0491 31.9276 12.7823 32.0009 12.5689C32.0609 12.3756 32.2143 12.2489 32.4277 12.2022C34.9749 11.6621 37.4755 12.4089 38.9558 14.1426C39.6827 14.9962 40.1361 16.0697 40.2428 17.1767C40.3495 18.3436 40.0628 19.4439 39.4159 20.3507C38.7225 21.3176 37.6755 22.0111 36.1152 22.5379C36.0418 22.5646 35.9752 22.5712 35.9085 22.5712H35.9151ZM34.0881 13.1424C34.8149 13.1424 35.5284 13.2691 36.1885 13.5225C37.9156 14.176 39.1359 15.8164 39.1559 17.5167C39.1692 18.4703 38.8358 19.3838 38.2557 20.0173C37.7022 20.6175 36.9354 21.0776 35.8285 21.4443C35.6484 21.5043 35.5284 21.6377 35.495 21.8111C35.455 22.0044 35.5217 22.2112 35.6551 22.3312C35.7351 22.4045 35.8751 22.4712 36.0818 22.4045C37.6155 21.8911 38.6424 21.2109 39.3159 20.2707C40.5629 18.537 40.3695 15.9964 38.8625 14.2293C37.4155 12.5289 34.9616 11.8021 32.461 12.3289C32.2476 12.3756 32.1609 12.5023 32.1343 12.6023C32.0809 12.7757 32.1343 12.989 32.261 13.1357C32.381 13.2691 32.5477 13.3224 32.7344 13.2824C33.1878 13.1891 33.6413 13.1357 34.0814 13.1357L34.0881 13.1424Z" fill="black"/>
<path d="M29.3398 11.8557C30.9669 11.529 32.7206 12.0424 33.8275 13.3094C34.9611 14.6097 35.2545 16.3167 34.8078 17.9571C34.541 18.944 34.0676 19.8709 33.5941 20.7711C33.2607 21.4179 32.2805 20.8444 32.6206 20.2043C33.4341 18.6373 34.3743 16.7968 33.6008 15.0231C32.9407 13.5028 31.2736 12.6159 29.6399 12.9426C29.3398 13.0026 29.0331 12.8559 28.9464 12.5492C28.8731 12.2691 29.0398 11.9157 29.3398 11.8557Z" fill="#FAD900"/>
<path d="M33.1541 21.1245C32.9341 21.1245 32.7074 20.9978 32.5807 20.7978C32.4607 20.6044 32.454 20.3844 32.5607 20.171C33.3409 18.6773 34.3077 16.8169 33.5409 15.0498C32.8874 13.5494 31.2537 12.6893 29.6533 13.0093C29.2999 13.076 28.9732 12.8893 28.8798 12.5692C28.8332 12.4025 28.8665 12.2091 28.9599 12.0558C29.0465 11.9157 29.1732 11.8224 29.3266 11.789C31.0403 11.449 32.7874 12.0158 33.8743 13.2694C34.9746 14.5297 35.3347 16.2501 34.8679 17.9771C34.5878 19.0107 34.0677 20.0043 33.6543 20.8045C33.5542 21.0045 33.3809 21.1112 33.1808 21.1245C33.1742 21.1245 33.1675 21.1245 33.1541 21.1245ZM30.3202 12.8093C31.7405 12.8093 33.0808 13.6561 33.6609 15.0031C34.4544 16.8302 33.4676 18.724 32.6807 20.2377C32.594 20.4044 32.6007 20.5777 32.694 20.7311C32.8007 20.8978 32.9941 20.9978 33.1742 20.9912C33.2808 20.9912 33.4342 20.9378 33.5342 20.7444C33.9477 19.9509 34.4678 18.9574 34.7412 17.9438C35.1946 16.2567 34.8412 14.583 33.7743 13.3561C32.714 12.1425 31.0203 11.589 29.3533 11.9224C29.2399 11.9424 29.1466 12.0158 29.0799 12.1225C29.0065 12.2425 28.9799 12.4025 29.0132 12.5292C29.0932 12.8226 29.3866 12.9226 29.6267 12.876C29.8601 12.8293 30.0934 12.8093 30.3202 12.8093Z" fill="black"/>
<path d="M27.793 12.2288V16.6298C27.793 16.9499 27.933 17.1766 28.133 17.3233V20.2573C28.133 20.9842 29.26 20.9842 29.26 20.2573V17.33C29.46 17.1833 29.6001 16.9566 29.6001 16.6365V12.2355C29.6001 11.0752 27.793 11.0686 27.793 12.2355V12.2288Z" fill="#FAD900"/>
<path d="M28.7001 20.8644C28.3867 20.8644 28.0666 20.651 28.0666 20.251V17.3503C27.9066 17.2236 27.7266 17.0035 27.7266 16.6235V12.2224C27.7266 11.5756 28.2267 11.2822 28.6934 11.2822C29.1602 11.2822 29.667 11.6023 29.667 12.2224V16.6235C29.667 17.0035 29.487 17.2236 29.3269 17.3503V20.2443C29.3269 20.6444 29.0069 20.8578 28.6934 20.8578L28.7001 20.8644ZM28.7001 11.4223C28.3 11.4223 27.8666 11.6757 27.8666 12.2291V16.6301C27.8666 16.9702 28.0333 17.1636 28.18 17.2703L28.2067 17.2903V20.2576C28.2067 20.5844 28.4667 20.7377 28.7068 20.7377C28.9468 20.7377 29.2002 20.591 29.2002 20.2576V17.2903L29.2269 17.2703C29.3669 17.1702 29.5403 16.9769 29.5403 16.6301V12.2291C29.5403 11.6757 29.1069 11.4223 28.7068 11.4223H28.7001Z" fill="black"/>
<path d="M37.0284 21.2576C36.8017 21.551 36.4549 21.7377 36.0615 21.7377C35.3814 21.7377 34.8346 21.1909 34.8346 20.5108C34.8346 20.3641 34.8612 20.2307 34.9079 20.0974C34.8946 20.0974 34.8746 20.084 34.8612 20.0773C34.6679 20.5175 34.2278 20.8242 33.721 20.8242C33.0342 20.8242 32.474 20.2641 32.474 19.5772C32.474 19.5039 32.4807 19.4372 32.494 19.3639C32.4674 19.3639 32.4407 19.3505 32.414 19.3505C32.354 19.9707 31.8339 20.4641 31.2004 20.4641C30.5202 20.4641 29.9735 19.9173 29.9735 19.2372C29.9735 19.1705 29.9801 19.1038 29.9935 19.0371C29.9868 19.0371 29.9801 19.0371 29.9668 19.0371C29.9668 19.0504 29.9668 19.0638 29.9668 19.0771C29.9668 19.7573 29.42 20.3041 28.7398 20.3041C28.0597 20.3041 27.5129 19.7573 27.5129 19.0771C27.5129 19.0638 27.5129 19.0571 27.5129 19.0438C27.5129 19.0438 27.4996 19.0438 27.4929 19.0438C27.4929 19.0905 27.5062 19.1438 27.5062 19.1905C27.5062 19.8706 26.9594 20.4174 26.2793 20.4174C25.6591 20.4174 25.159 19.9573 25.0723 19.3639C25.059 19.3639 25.0457 19.3639 25.0323 19.3705C25.0723 19.4905 25.099 19.6172 25.099 19.7506C25.099 20.4508 24.5322 21.0242 23.8254 21.0242C23.2386 21.0242 22.7518 20.6241 22.6051 20.084C22.5851 20.084 22.5718 20.0974 22.5517 20.104C22.6384 20.2707 22.6918 20.4574 22.6918 20.6642C22.6918 21.3443 22.145 21.8911 21.4648 21.8911C20.9314 21.8911 20.4846 21.551 20.3112 21.0776C20.0112 21.2376 19.7311 21.4177 19.4844 21.5977C19.9111 21.8844 20.1979 21.9845 20.5113 22.4779C20.9247 23.118 21.3448 23.7849 21.4915 24.5317H35.8948C36.1415 23.4248 36.6883 22.4246 37.5885 21.7844C37.4218 21.591 37.2285 21.4177 37.0151 21.2576H37.0284Z" fill="#FAD900"/>
<path d="M21.4981 24.6053C21.4981 24.6053 21.4381 24.5853 21.4314 24.552C21.2847 23.8051 20.8446 23.125 20.4646 22.5249C20.2245 22.1514 20.0111 22.0181 19.711 21.8314C19.631 21.778 19.5443 21.7313 19.451 21.6647C19.431 21.6513 19.4243 21.6313 19.4243 21.6113C19.4243 21.5913 19.431 21.5713 19.451 21.558C19.6844 21.3846 19.9511 21.2112 20.2845 21.0312C20.3045 21.0245 20.3245 21.0178 20.3379 21.0312C20.3579 21.0378 20.3712 21.0512 20.3779 21.0712C20.5446 21.5313 20.978 21.8447 21.4648 21.8447C22.1049 21.8447 22.6251 21.3246 22.6251 20.6844C22.6251 20.5044 22.5784 20.3243 22.4917 20.1576C22.485 20.1376 22.485 20.1176 22.4917 20.1043C22.4984 20.0843 22.5117 20.071 22.5317 20.0643L22.585 20.0443C22.585 20.0443 22.6251 20.0443 22.6384 20.0443C22.6584 20.051 22.6651 20.071 22.6717 20.0843C22.8118 20.6111 23.2919 20.9712 23.8253 20.9712C24.4921 20.9712 25.0256 20.431 25.0256 19.7709C25.0256 19.6575 25.0056 19.5442 24.9656 19.4108C24.9656 19.3908 24.9656 19.3708 24.9656 19.3575C24.9723 19.3441 24.9923 19.3308 25.0123 19.3241H25.0523C25.0523 19.3241 25.0923 19.3174 25.1056 19.3241C25.119 19.3375 25.1323 19.3508 25.1323 19.3708C25.2123 19.9376 25.7058 20.3644 26.2726 20.3644C26.9127 20.3644 27.4328 19.8442 27.4328 19.2041C27.4328 19.1707 27.4328 19.1374 27.4262 19.1041V19.0641C27.4262 19.0641 27.4262 19.0307 27.4328 19.0107C27.4462 18.9974 27.4595 18.9907 27.4795 18.984C27.5062 18.984 27.5328 18.984 27.5529 19.004C27.5662 19.0174 27.5729 19.0307 27.5729 19.0507C27.5729 19.0507 27.5729 19.0707 27.5729 19.0774C27.5729 19.7242 28.093 20.2443 28.7331 20.2443C29.3733 20.2443 29.8934 19.7242 29.8934 19.0841C29.8934 19.0641 29.8934 19.0574 29.8934 19.0441C29.8934 19.024 29.8934 19.004 29.9134 18.9907C29.9267 18.9774 29.9467 18.9707 29.9667 18.9707C29.9867 18.9707 30.0134 18.984 30.0268 18.9974C30.0401 19.0107 30.0534 19.0307 30.0534 19.0507C30.0468 19.1107 30.0334 19.1774 30.0334 19.2374C30.0334 19.8776 30.5535 20.3977 31.1937 20.3977C31.7938 20.3977 32.2873 19.9443 32.3406 19.3441C32.3406 19.3241 32.354 19.3108 32.3673 19.2974C32.3806 19.2841 32.4006 19.2841 32.4206 19.2841L32.5007 19.2974C32.534 19.3041 32.5607 19.3375 32.554 19.3775C32.5473 19.4375 32.534 19.5042 32.534 19.5775C32.534 20.231 33.0608 20.7578 33.7143 20.7578C34.181 20.7578 34.6078 20.4777 34.7945 20.051C34.8079 20.0176 34.8479 20.0043 34.8812 20.0176L34.9279 20.0376C34.9612 20.051 34.9812 20.091 34.9679 20.1243C34.9212 20.2577 34.8945 20.3844 34.8945 20.5111C34.8945 21.1512 35.4147 21.6713 36.0548 21.6713C36.4149 21.6713 36.7483 21.5046 36.9683 21.2179C36.9817 21.2045 36.995 21.1912 37.015 21.1912C37.035 21.1912 37.0484 21.1912 37.0617 21.2045C37.2951 21.3846 37.4885 21.5646 37.6418 21.7447C37.6552 21.758 37.6618 21.778 37.6552 21.798C37.6552 21.818 37.6418 21.8314 37.6285 21.8447C36.5816 22.5849 36.1482 23.7251 35.9615 24.5453C35.9548 24.5787 35.9281 24.5987 35.8948 24.5987H21.4915L21.4981 24.6053ZM19.6044 21.6046C19.6644 21.6447 19.7244 21.678 19.7777 21.718C20.0778 21.9047 20.3179 22.0514 20.5712 22.4515C20.958 23.0516 21.3914 23.7251 21.5515 24.472H35.8481C36.1148 23.305 36.6816 22.3782 37.4951 21.778C37.3684 21.638 37.2151 21.498 37.035 21.3513C36.7883 21.638 36.4349 21.8047 36.0548 21.8047C35.3413 21.8047 34.7612 21.2246 34.7612 20.5111C34.7612 20.4644 34.7612 20.411 34.7678 20.3644C34.5211 20.6978 34.1344 20.8978 33.7143 20.8978C33.0274 20.8978 32.454 20.3644 32.4006 19.6909C32.2206 20.191 31.7471 20.5377 31.1937 20.5377C30.5935 20.5377 30.0868 20.1243 29.9401 19.5642C29.7467 20.0376 29.2799 20.3777 28.7398 20.3777C28.1997 20.3777 27.7196 20.0309 27.5328 19.5508C27.3795 20.0976 26.8794 20.4977 26.2859 20.4977C25.8125 20.4977 25.3924 20.2377 25.1656 19.8442C25.1256 20.5511 24.5455 21.1112 23.832 21.1112C23.3986 21.1112 23.0051 20.8978 22.7584 20.5644C22.7584 20.6044 22.7584 20.6444 22.7584 20.6844C22.7584 21.3979 22.1783 21.9781 21.4648 21.9781C20.9447 21.9781 20.4779 21.6647 20.2778 21.1912C20.0178 21.3379 19.7977 21.4779 19.6044 21.618V21.6046Z" fill="black"/>
<path d="M30.1067 7.02759H29.1798V6.04736H28.3063V7.02759H27.3794V7.76776H28.3063V9.9816H29.1798V7.76776H30.1067V7.02759Z" fill="#FAD900"/>
<path d="M29.2468 10.0486H28.2399V7.83472H27.313V6.96118H28.2399V5.98096H29.2468V6.96118H30.1736V7.83472H29.2468V10.0486ZM28.3732 9.91519H29.1134V7.70135H30.0403V7.09455H29.1134V6.11432H28.3732V7.09455H27.4464V7.70135H28.3732V9.91519Z" fill="black"/>
<path d="M28.7397 11.8754C29.6199 11.8754 30.3334 11.1619 30.3334 10.2817C30.3334 9.40151 29.6199 8.68799 28.7397 8.68799C27.8595 8.68799 27.146 9.40151 27.146 10.2817C27.146 11.1619 27.8595 11.8754 28.7397 11.8754Z" fill="#FAD900"/>
<path d="M28.74 11.9423C27.8264 11.9423 27.0796 11.1955 27.0796 10.282C27.0796 9.36842 27.8264 8.62158 28.74 8.62158C29.6535 8.62158 30.4004 9.36842 30.4004 10.282C30.4004 11.1955 29.6535 11.9423 28.74 11.9423ZM28.74 8.75495C27.8998 8.75495 27.213 9.44177 27.213 10.282C27.213 11.1222 27.8998 11.809 28.74 11.809C29.5802 11.809 30.267 11.1222 30.267 10.282C30.267 9.44177 29.5802 8.75495 28.74 8.75495Z" fill="black"/>
<path d="M35.6813 24.7586C36.0681 24.6653 36.0814 24.0652 35.7013 23.9518C34.3077 23.545 31.9338 23.0182 29.0331 23.0449C26.2125 23.0783 23.4252 23.565 21.6448 23.9451C21.2314 24.0318 21.2514 24.692 21.6581 24.7653" fill="#FAD900"/>
<path d="M21.6517 24.832C21.3983 24.7853 21.285 24.5653 21.2783 24.3652C21.2783 24.1652 21.385 23.9385 21.6317 23.8851C23.4588 23.4917 26.2261 23.0116 29.0334 22.9782C31.8941 22.9382 34.248 23.4584 35.7216 23.8851C35.955 23.9518 36.0551 24.1785 36.0484 24.3652C36.0484 24.592 35.9083 24.772 35.7016 24.8187L35.6683 24.6853C35.8417 24.6453 35.9083 24.4853 35.915 24.3586C35.915 24.2319 35.8617 24.0585 35.6816 24.0118C34.2213 23.5851 31.8808 23.0716 29.0334 23.1116C26.2395 23.1383 23.4855 23.6184 21.6584 24.0118C21.4717 24.0518 21.405 24.2252 21.4117 24.3586C21.4117 24.5053 21.4984 24.6653 21.6717 24.6986L21.6517 24.832Z" fill="black"/>
<path d="M27.4532 51.0981C26.8997 50.758 26.3196 50.4646 25.7394 50.1845C25.1593 49.8978 24.5725 49.6444 23.979 49.391C23.3856 49.1376 22.7854 48.9109 22.1786 48.6975C21.5718 48.4908 20.9517 48.2974 20.3115 48.1574L20.6783 47.2705C21.2317 47.6173 21.8052 47.9173 22.3853 48.1907C22.9655 48.4641 23.5589 48.7242 24.1591 48.9576C24.7592 49.1976 25.3594 49.4243 25.9728 49.6244C26.5863 49.8311 27.1998 50.0245 27.8333 50.1712L27.4532 51.0981Z" fill="#FAD900"/>
<path d="M29.04 53.6854C28.7532 53.6854 28.4665 53.6254 28.1998 53.512L18.0708 49.111C17.4973 48.8643 17.1572 48.0241 17.1572 47.3573L17.2172 24.6787H40.8427V47.2639C40.8427 47.864 40.636 48.5975 40.0492 48.8643L29.9135 53.4987C29.6334 53.6254 29.3334 53.692 29.0333 53.692L29.04 53.6854ZM17.3506 24.8121L17.2906 47.3573C17.2906 47.9641 17.6107 48.7642 18.1241 48.991L28.2531 53.392C28.7666 53.612 29.3534 53.6054 29.8601 53.3786L39.9958 48.7442C40.5226 48.5109 40.7093 47.804 40.7093 47.2706V24.8187H17.3506V24.8121Z" fill="black"/>
<path d="M29.3935 36.6548H28.4133C28.3199 36.6548 28.2332 36.7081 28.1932 36.7881L27.6931 37.715C27.6531 37.7884 27.6531 37.8817 27.6931 37.9551L28.1932 38.882C28.2399 38.962 28.3199 39.0153 28.4133 39.0153H29.3935C29.4868 39.0153 29.5735 38.962 29.6135 38.882L30.1136 37.9551C30.1537 37.8817 30.1537 37.7884 30.1136 37.715L29.6135 36.7881C29.5669 36.7081 29.4868 36.6548 29.3935 36.6548Z" fill="#2A6834"/>
<path d="M29.4267 39.0751H28.3932C28.2931 39.0751 28.1998 39.0218 28.1531 38.9351L27.6263 37.9615C27.5796 37.8815 27.5796 37.7815 27.6263 37.7015L28.1531 36.7279C28.1998 36.6412 28.2931 36.5879 28.3932 36.5879H29.4267C29.5268 36.5879 29.6201 36.6412 29.6668 36.7279L30.1936 37.7015C30.2402 37.7815 30.2402 37.8815 30.1936 37.9615L29.6668 38.9351C29.6201 39.0218 29.5268 39.0751 29.4267 39.0751ZM28.3932 36.7213C28.3398 36.7213 28.2998 36.7479 28.2731 36.7946L27.7463 37.7682C27.7263 37.8082 27.7263 37.8548 27.7463 37.9015L28.2731 38.8751C28.2998 38.9218 28.3398 38.9484 28.3932 38.9484H29.4267C29.4801 38.9484 29.5201 38.9218 29.5468 38.8751L30.0735 37.9015C30.0935 37.8615 30.0935 37.8148 30.0735 37.7682L29.5468 36.7946C29.5201 36.7479 29.4801 36.7213 29.4267 36.7213H28.3932Z" fill="black"/>
<path d="M29.1669 37.3481H28.6468L28.3867 37.8283L28.6468 38.3084H29.1669L29.427 37.8283L29.1669 37.3481Z" fill="#2A6834"/>
<path d="M29.1669 38.3748H28.6468C28.6468 38.3748 28.6001 38.3615 28.5868 38.3415L28.3267 37.8614C28.3267 37.8614 28.3134 37.8147 28.3267 37.7947L28.5868 37.3146C28.5868 37.3146 28.6201 37.2812 28.6468 37.2812H29.1669C29.1669 37.2812 29.2136 37.2946 29.2269 37.3146L29.487 37.7947C29.487 37.7947 29.5003 37.8414 29.487 37.8614L29.2269 38.3415C29.2269 38.3415 29.1936 38.3748 29.1669 38.3748ZM28.6868 38.2415H29.1269L29.3536 37.828L29.1269 37.4146H28.6868L28.4601 37.828L28.6868 38.2415Z" fill="black"/>
<path d="M29.5005 36.6309L29.1064 37.312L29.2219 37.3788L29.6159 36.6977L29.5005 36.6309Z" fill="black"/>
<path d="M28.5873 38.2693L28.2319 38.8726L28.3468 38.9402L28.7022 38.337L28.5873 38.2693Z" fill="black"/>
<path d="M28.6133 37.3814L28.2466 36.6946L28.3666 36.6279L28.7334 37.3214L28.6133 37.3814Z" fill="black"/>
<path d="M29.4869 38.9549L29.1602 38.3347L29.2802 38.2681L29.6003 38.8882L29.4869 38.9549Z" fill="black"/>
<path d="M27.6402 37.7197L27.6382 37.853L28.4249 37.8651L28.427 37.7318L27.6402 37.7197Z" fill="black"/>
<path d="M29.5127 37.7197L29.5098 37.853L30.2098 37.8687L30.2127 37.7353L29.5127 37.7197Z" fill="black"/>
</g>
<defs>
<clipPath id="clip0_1_957">
<rect width="58" height="58" fill="white" transform="translate(0 0.833008)"/>
</clipPath>
</defs>
</svg>
