<svg width="338" height="96" viewBox="0 0 338 96" fill="none" xmlns="http://www.w3.org/2000/svg">
<g clip-path="url(#clip0_4213_91)">
<path d="M248.85 35.8601H244.09V60.3801H248.85V35.8601Z" fill="white"/>
<path d="M120.59 48.1499C120.59 53.0099 117.07 56.4299 112.5 56.4299C107.93 56.4299 104.41 52.9999 104.41 48.1499C104.41 43.2999 107.93 39.8699 112.5 39.8699C117.07 39.8699 120.59 43.2999 120.59 48.1499ZM125.4 48.1499C125.4 40.8199 119.97 35.4399 112.5 35.4399C105.03 35.4399 99.6001 40.8199 99.6001 48.1499C99.6001 55.4799 104.98 60.8099 112.5 60.8099C120.02 60.8099 125.4 55.4299 125.4 48.1499Z" fill="#2EF3AF"/>
<path d="M181.06 48.1499C181.06 53.0099 177.54 56.4299 172.97 56.4299C168.4 56.4299 164.88 52.9999 164.88 48.1499C164.88 43.2999 168.4 39.8699 172.97 39.8699C177.54 39.8699 181.06 43.2999 181.06 48.1499ZM185.87 48.1499C185.87 40.8199 180.44 35.4399 172.97 35.4399C165.5 35.4399 160.07 40.8199 160.07 48.1499C160.07 55.4799 165.45 60.8099 172.97 60.8099C180.49 60.8099 185.87 55.4299 185.87 48.1499Z" fill="#2EF3AF"/>
<path d="M200.15 60.8099C206.24 60.8099 210.2 57.7599 210.2 53.3399C210.2 49.9599 207.91 47.2499 203.53 46.3899L198.53 45.3899C196.77 45.0599 195.63 44.1999 195.63 42.6299C195.63 40.9199 197.39 39.5799 200.3 39.5799C203.68 39.5799 205.63 41.5799 206.01 43.3899L209.96 41.4899C209.1 38.8699 206.44 35.4399 200.34 35.4399C194.86 35.4399 191.01 38.4899 191.01 42.7199C191.01 46.7199 193.68 48.9099 197.49 49.6699L202.25 50.5699C204.35 50.9999 205.34 52.0499 205.34 53.4699C205.34 55.2799 203.48 56.5699 200.25 56.5699C196.49 56.5699 194.25 54.1399 193.68 52.1899L189.68 54.1899C190.63 57.1399 193.87 60.8099 200.15 60.8099Z" fill="white"/>
<path d="M233.28 45.8097H219.09C219.9 41.7597 222.85 39.6197 226.47 39.6197C230.66 39.6197 233.23 42.7597 233.28 45.8097ZM238.23 49.8097V47.5697C238.23 41.0997 233.71 35.4297 226.52 35.4297C219.33 35.4297 214.14 40.9097 214.14 48.1397C214.14 55.3697 219.04 60.7997 226.57 60.7997C233.05 60.7997 236.38 56.6597 237.42 53.9397L233.75 51.9897C232.99 54.1297 230.47 56.5097 226.56 56.5097C222.65 56.5097 219.56 54.4597 218.94 49.7997H238.22L238.23 49.8097Z" fill="white"/>
<path d="M243 28.3401C243 30.2901 244.48 31.8101 246.48 31.8101C248.48 31.8101 249.96 30.2901 249.96 28.3401C249.96 26.3901 248.48 24.8701 246.48 24.8701C244.48 24.8701 243 26.3401 243 28.3401Z" fill="white"/>
<path d="M306.08 48.1499C306.08 53.0099 302.56 56.4299 297.99 56.4299C293.42 56.4299 289.9 52.9999 289.9 48.1499C289.9 43.2999 293.42 39.8699 297.99 39.8699C302.56 39.8699 306.08 43.2999 306.08 48.1499ZM310.89 48.1499C310.89 40.8199 305.46 35.4399 297.99 35.4399C290.52 35.4399 285.09 40.8199 285.09 48.1499C285.09 55.4799 290.47 60.8099 297.99 60.8099C305.51 60.8099 310.89 55.4299 310.89 48.1499Z" fill="white"/>
<path d="M328.42 35.4897C324.66 35.4897 322.23 37.1097 321.18 38.4897L320.23 35.9197H315.14L316.85 40.8197V60.4397H321.61V45.9697C321.61 42.3497 324.13 39.9697 327.42 39.9697C330.71 39.9697 333.13 42.1597 333.13 45.9697V60.4397H337.89V44.9197C337.89 39.5897 334.03 35.4897 328.42 35.4897Z" fill="white"/>
<path d="M274.94 48.0999C274.94 52.6699 271.99 56.4299 267.23 56.4299C262.47 56.4299 259.52 52.6699 259.52 48.0999C259.52 43.5299 262.47 39.8599 267.23 39.8599C271.99 39.8599 274.94 43.6199 274.94 48.0999ZM281.08 60.3799L279.6 56.1399V25.1499H274.84V39.0999C273.41 37.0099 270.13 35.4299 266.7 35.4299C259.89 35.4299 254.7 40.7599 254.7 48.0899C254.7 56.0399 259.99 60.7999 266.7 60.7999C269.94 60.7999 273.32 59.3199 274.84 57.2799L275.95 60.3699H281.07L281.08 60.3799Z" fill="white"/>
<path d="M151.39 48.0201C151.39 52.5401 148.44 56.2601 143.68 56.2601C138.92 56.2601 135.97 52.5001 135.97 48.0201C135.97 43.5401 138.92 39.6901 143.68 39.6901C148.44 39.6901 151.39 43.4501 151.39 48.0201ZM156.2 48.0201C156.2 40.0701 150.91 35.3101 144.2 35.3101C140.96 35.3101 137.58 36.7901 136.06 38.8301L134.95 35.7401H129.83L131.31 39.9801V70.9701H136.07V57.0201C137.5 59.1201 140.78 60.6901 144.21 60.6901C151.02 60.6901 156.21 55.3601 156.21 48.0301" fill="#2EF3AF"/>
<path fill-rule="evenodd" clip-rule="evenodd" d="M29.26 27.2387C29.2534 27.1233 29.25 27.007 29.25 26.8899V17.4999C29.25 14.7399 30.45 10.6099 31.93 8.27994L36.07 1.74994C37.55 -0.580059 39.95 -0.580059 41.42 1.74994L45.55 8.27994C47.03 10.6099 48.23 14.7399 48.23 17.4999V25.0599C48.23 25.1936 48.2266 25.3265 48.22 25.4585V48.8798C48.24 48.8598 48.25 48.8598 48.25 48.8598V48.9298C48.25 49.7298 48.9 50.3798 49.7 50.3798C50.03 50.3798 50.34 50.2598 50.58 50.0798H50.6L56.89 45.2298L56.95 45.1598C57.86 44.2998 58.43 43.0898 58.46 41.7498H58.48V34.4198C58.48 30.5098 61.06 25.8198 64.22 23.5398L71.78 18.0798C74.94 15.7998 77.51 17.1098 77.51 21.0098V46.4898C77.51 50.3898 74.99 55.4798 71.89 57.8398L70.69 58.7498V58.7698L48.22 75.9298C47.66 76.3798 39.26 82.8898 30.41 76.7798L6.82 58.7698V58.7498L5.62 57.8398C2.52 55.4698 0 50.3898 0 46.4898V21.0098C0 17.0998 2.57 15.7898 5.73 18.1198L13.29 23.5798C16.45 25.8598 19.02 30.8798 19.02 34.7798V41.9598C19.04 43.2998 19.61 44.3298 20.52 45.1898L20.55 45.2298L26.9 50.0798H26.92C27.17 50.2698 27.48 50.3898 27.81 50.3898C28.61 50.3898 29.26 49.7398 29.26 48.9398V48.8698V27.2387Z" fill="#2EF3AF"/>
</g>
<defs>
<clipPath id="clip0_4213_91">
<rect width="337.89" height="95.09" fill="white"/>
</clipPath>
</defs>
</svg>
